<?xml version="1.0" standalone="no"?><!DOCTYPE svg PUBLIC "-//W3C//DTD SVG 1.1//EN" "http://www.w3.org/Graphics/SVG/1.1/DTD/svg11.dtd"><svg t="1552674377750" class="icon" style="" viewBox="0 0 1024 1024" version="1.1" xmlns="http://www.w3.org/2000/svg" p-id="1562" xmlns:xlink="http://www.w3.org/1999/xlink" width="32" height="32"><defs><style type="text/css"></style></defs><path d="M912.8 405.1L702.6 188.3c-10-10-23.2-15.4-37.3-15.4-14.1 0-27.3 5.5-37.7 15.8l-113 117.2c-0.6-0.8-0.9-1.7-1.6-2.4L398 188.4c-10-10-23.2-15.5-37.3-15.5-14.1 0-27.4 5.5-37.3 15.5l-210 209.8c-10 10-15.4 23.2-15.4 37.3 0 14.1 5.5 27.3 15.5 37.3l108 108 0.2-0.2c2.6 2.9 6.2 4.9 10.4 4.9 7.7 0 14-6.3 14-14 0-4.2-1.9-7.9-4.9-10.4l0.1-0.1-108-108c-9.7-9.6-9.6-25.3 0-35l202.4-202.4c13.8-13.8 36.1-13.8 49.9 0l100 100.1c4.1 4.1 4.1 10.8 0 14.9l-37.5 42.2c-9.9 12.7-12.8 30.3-1.2 42.6 0 0 16.5 24.4 62.2 23.7 23-0.4 50.4-4.7 69.2-18.6 4.5-3.3 10.5-3.4 14.5 0.5L749 578.7c9.6 9.7 9.6 25.3 0 35-9.7 9.7-25.3 9.7-35 0l-35.1-31.6c-6.2-6.6-15.2-8-24.2-7-6.9 0.8-13 5.7-15.3 12-3 8.5 0.4 18 7 24.2l32.5 37.5c9.7 9.7 9.7 25.3 0 35-9.6 9.7-25.3 9.7-35 0l-35.1-31.1c-6.2-6.4-12.4-9.5-21.9-7.9-6.8 1.1-13.1 5.7-15.8 11.8-3.6 8.2 0.3 17.8 6.7 24.1l31.1 38.2c9.6 9.7 9.6 25.3 0 35-9.7 9.6-25.3 9.6-35 0l-36.9-33c-6.2-6.4-15.4-8.8-24.1-6.7-5.6 1.3-11.8 8.5-13.5 13.5-2.8 8.5 0.3 17.8 6.7 24l32.8 37.2c9.7 9.7 9.7 25.3 0 35s-25.3 9.6-35 0L317.5 637.2l-0.2 0.2c-2.6-2.9-6.2-4.9-10.4-4.9-7.7 0-14 6.3-14 14 0 4.2 1.9 7.9 4.9 10.4l-0.1 0.1 186.5 186.5c10 10 23.2 15.5 37.3 15.5s27.4-5.5 37.3-15.4c10-10 15.5-23.2 15.5-37.3 0-7.7-1.6-15.2-4.7-22 6.8 3.1 14.2 4.7 21.9 4.7 14.1 0 27.4-5.5 37.3-15.4 10-9.9 15.5-23.2 15.5-37.3 0-7.7-1.6-15.2-4.7-22 6.8 3.1 14.2 4.8 21.9 4.8 14.1 0 27.3-5.5 37.3-15.5 16-16 19.5-39.8 10.7-59.3 6.8 3.1 14.3 4.8 22 4.8 14.1 0 27.4-5.5 37.3-15.5 9.7-9.8 14.7-22.4 15.2-35.2 6.4-0.6 12.5-3 17.1-7.7l111.4-111.4c10-10 15.5-23.2 15.5-37.3 0-14-5.5-27.2-15.2-36.9z m-20.1 54.5L781.3 571c-3.6-7.6-8.5-14.5-14.5-20.5L609.3 393.1l17.5-17.5c6.4-6.2 9-17.8 1.8-24.9-6.3-6.3-15.9-6.6-22.1-0.2l-36.3 37.4c-17.2 15.9-42.2 21.4-62 20.2-1.3-0.1-32.3-3.1-41.5-12.3l181.1-187.6c9.7-9.7 25.3-9.7 35 0l209.9 216.4c9.7 9.7 9.7 25.3 0 35z" fill="#3259CE" p-id="1563"></path></svg>