<?xml version="1.0" standalone="no"?><!DOCTYPE svg PUBLIC "-//W3C//DTD SVG 1.1//EN" "http://www.w3.org/Graphics/SVG/1.1/DTD/svg11.dtd"><svg t="1552673270978" class="icon" style="" viewBox="0 0 1024 1024" version="1.1" xmlns="http://www.w3.org/2000/svg" p-id="5410" xmlns:xlink="http://www.w3.org/1999/xlink" width="40" height="40"><defs><style type="text/css"></style></defs><path d="M956.8 334.08c-8.96 0-16 7.04-16 16L940.8 723.2c0 17.28-8.96 33.28-24.32 41.6L544 977.92c-14.72 8.32-32.64 8.32-47.36 0L123.52 764.8c-14.72-8.32-24.32-24.32-24.32-41.6l0-424.96c0-17.28 8.96-33.28 24.32-41.6l372.48-213.12c14.72-8.32 32.64-8.32 47.36 0l334.72 191.36c7.68 4.48 17.28 1.92 21.76-5.76 4.48-7.68 1.92-17.28-5.76-21.76l-334.72-191.36c-24.32-14.08-55.04-14.08-79.36 0L107.52 228.48c-24.96 14.08-40.32 40.96-40.32 69.76L67.2 723.2c0 28.8 15.36 55.04 40.32 69.76L480 1005.44c12.16 7.04 26.24 10.24 39.68 10.24 13.44 0 27.52-3.2 39.68-10.24l373.12-213.12c24.96-14.08 40.32-40.96 40.32-69.76l0-372.48C972.8 341.76 965.76 334.08 956.8 334.08z" p-id="5411" fill="#8a8a8a"></path><path d="M481.28 341.76c0-17.28-13.44-30.72-30.08-30.72l-119.04 0c-17.28 0-30.08 13.44-30.08 30.72L302.08 588.8l49.28 0 0-237.44c0-7.04 5.76-12.8 13.44-12.8l54.4 0c7.68 0 14.08 5.76 14.08 12.8L433.28 588.8l49.28 0L482.56 341.76z" p-id="5412" fill="#8a8a8a"></path><path d="M736.64 484.48 702.08 484.48 718.72 392.96 654.72 392.96 638.72 484.48 595.2 484.48 579.2 392.96 515.2 392.96 531.2 484.48 497.28 484.48 497.28 510.72 736.64 510.72Z" p-id="5413" fill="#8a8a8a"></path><path d="M419.2 376.96l-55.04 0L364.16 521.6c0 90.88-17.28 140.16-58.88 213.76l62.72 0c12.8-23.68 23.68-46.72 32-74.24l19.84 74.24 55.68 0-34.56-129.92-28.8 0c4.48-28.8 7.04-62.72 7.04-102.4L419.2 376.96z" p-id="5414" fill="#8a8a8a"></path><path d="M535.68 541.44c-15.36 0-28.16 14.72-28.16 31.36l0 132.48c0 17.28 13.44 30.72 28.16 30.72l163.2 0c15.36 0 28.16-14.08 28.16-30.72L727.04 572.16c0-16.64-12.16-31.36-28.16-31.36L535.68 540.8zM662.4 691.2c0 10.24-7.68 17.92-16.64 17.92l-57.6 0c-8.96 0-16-7.68-16-17.92L572.16 585.6c0-9.6 7.04-17.28 16-17.28l57.6 0c8.96 0 16.64 7.68 16.64 17.28L662.4 691.2z" p-id="5415" fill="#8a8a8a"></path><path d="M584.32 298.24 584.32 338.56 504.32 338.56 504.32 364.8 730.24 364.8 730.24 338.56 649.6 338.56 649.6 298.24Z" p-id="5416" fill="#8a8a8a"></path></svg>