<?xml version="1.0" standalone="no"?><!DOCTYPE svg PUBLIC "-//W3C//DTD SVG 1.1//EN" "http://www.w3.org/Graphics/SVG/1.1/DTD/svg11.dtd"><svg t="1552674234579" class="icon" style="" viewBox="0 0 1024 1024" version="1.1" xmlns="http://www.w3.org/2000/svg" p-id="14672" xmlns:xlink="http://www.w3.org/1999/xlink" width="32" height="32"><defs><style type="text/css"></style></defs><path d="M450.2 913.7c-10 0-19.3-5.2-24.5-13.7l-80-130.9-231.9-1.8c-30.3-2.2-51.3-26-49.8-54.2V312.4c0-14.5 5.3-27.9 14.9-37.6 9.5-9.6 22.6-14.8 36.9-14.8h668.4c29 0 51.1 21.3 52.2 49.6v404.8c0 34.4-26.6 52.9-51.6 52.9l-231.1 1.2-78.9 131.2c-5.2 8.8-14.5 14-24.6 14 0.1 0 0 0 0 0z m357.5-602.8c-0.4-10.5-7.9-22.5-23.5-22.1h-667c-15-0.7-24.5 9.6-24.5 23.7v402.2c-0.6 11.8 7.4 23 21.4 24l232.7 1.8c9.1 0 17.2 4 22.2 11.6l81.3 133 80.3-133.5c5.6-7.1 13.6-11.6 22.2-11.6l231.4-1.2c9.3 0.3 23.5-5.4 23.5-24.2V310.9z" fill="#3259CE" p-id="14673"></path><path d="M273.3 519.6c0.5 0 0.8 0.4 0.8 0.8 0 0.5-0.4 0.8-0.8 0.8s-0.8-0.4-0.8-0.8 0.4-0.8 0.8-0.8m0-28.6c-16.3 0-29.5 13.2-29.5 29.5S257 550 273.3 550s29.5-13.2 29.5-29.5-13.2-29.5-29.5-29.5zM391.2 519.6c0.5 0 0.8 0.4 0.8 0.8 0 0.5-0.4 0.8-0.8 0.8s-0.8-0.4-0.8-0.8 0.4-0.8 0.8-0.8m0-28.6c-16.3 0-29.5 13.2-29.5 29.5s13.2 29.5 29.5 29.5 29.5-13.2 29.5-29.5-13.2-29.5-29.5-29.5zM509.1 519.6c0.5 0 0.8 0.4 0.8 0.8 0 0.5-0.4 0.8-0.8 0.8s-0.8-0.4-0.8-0.8 0.3-0.8 0.8-0.8m0-28.6c-16.3 0-29.5 13.2-29.5 29.5s13.2 29.5 29.5 29.5 29.5-13.2 29.5-29.5-13.2-29.5-29.5-29.5zM627 519.6c0.5 0 0.8 0.4 0.8 0.8 0 0.5-0.4 0.8-0.8 0.8-0.5 0-0.8-0.4-0.8-0.8-0.1-0.4 0.3-0.8 0.8-0.8m0-28.6c-16.3 0-29.5 13.2-29.5 29.5S610.7 550 627 550s29.5-13.2 29.5-29.5c-0.1-16.3-13.3-29.5-29.5-29.5z" fill="#3259CE" p-id="14674"></path><path d="M960.3 160.4c-1.1-28.3-23.2-49.6-52.2-49.6H239.7c-14.3 0-27.3 5.3-36.9 14.8-9.7 9.7-15 23.1-14.9 37.6v53.9h28.7v-53.9c0-14.1 9.4-24.4 24.5-23.7h667c15.7-0.4 23.1 11.6 23.5 22.1v403.7c0 18.8-14.2 24.5-23.5 24.2l-28.7 0.2v28.7l29.4-0.2c25 0 51.6-18.5 51.6-52.9l-0.1-404.9z" fill="#3259CE" p-id="14675"></path><path d="M202.3 217m-14.3 0a14.3 14.3 0 1 0 28.6 0 14.3 14.3 0 1 0-28.6 0Z" fill="#3259CE" p-id="14676"></path><path d="M879.4 603.9m-14.3 0a14.3 14.3 0 1 0 28.6 0 14.3 14.3 0 1 0-28.6 0Z" fill="#3259CE" p-id="14677"></path></svg>