<?xml version="1.0" standalone="no"?><!DOCTYPE svg PUBLIC "-//W3C//DTD SVG 1.1//EN" "http://www.w3.org/Graphics/SVG/1.1/DTD/svg11.dtd"><svg t="1552673148415" class="icon" style="" viewBox="0 0 1024 1024" version="1.1" xmlns="http://www.w3.org/2000/svg" p-id="4869" xmlns:xlink="http://www.w3.org/1999/xlink" width="40" height="40"><defs><style type="text/css"></style></defs><path d="M422.234 848.913l20.686-1.419c178.271-12.24 317.917-161.906 317.917-340.729 0-188.335-153.22-341.557-341.553-341.557-188.338 0-341.563 153.222-341.563 341.557 0 15.677 1.107 31.586 3.29 47.29l3.513 25.265h-63.116l-2.551-19.295c-2.332-17.625-3.515-35.545-3.515-53.26 0-222.732 181.207-403.937 403.942-403.937 222.731 0 403.935 181.206 403.935 403.937 0 25.712-2.469 51.503-7.343 76.725l199.638 116.514-39.599 67.843-183.27-106.964c-26.698 64.534-69.974 121.329-125.5 164.603-64.006 49.886-140.515 79.045-221.259 84.324l-23.653 1.548v-62.445zM377.279 779.883v-130.251h-100.628v-55.074h100.628v-65.101h-99.069v-55.075h80.093l-121.381-188.663h71.893l101.996 160.9 102.002-160.9h74.372l-123.51 188.663h82.855v55.075h-102.18v65.101h100.627v55.074h-100.627v130.251z" p-id="4870" fill="#8a8a8a"></path></svg>