<?xml version="1.0" standalone="no"?><!DOCTYPE svg PUBLIC "-//W3C//DTD SVG 1.1//EN" "http://www.w3.org/Graphics/SVG/1.1/DTD/svg11.dtd"><svg t="1552641252431" class="icon" style="" viewBox="0 0 1024 1024" version="1.1" xmlns="http://www.w3.org/2000/svg" p-id="1683" xmlns:xlink="http://www.w3.org/1999/xlink" width="40" height="40"><defs><style type="text/css"></style></defs><path d="M724.608 938.56H562.133333a36.544 36.544 0 1 1 0-73.088h162.474667a20.906667 20.906667 0 0 0 20.629333-20.629333V179.029333a20.906667 20.906667 0 0 0-20.629333-20.608H307.050667a20.906667 20.906667 0 0 0-20.629334 20.629334v665.813333a20.906667 20.906667 0 0 0 20.629334 20.608h74.176a36.544 36.544 0 1 1 0 73.088h-74.176A93.824 93.824 0 0 1 213.333333 844.842667V179.029333A93.824 93.824 0 0 1 307.050667 85.333333h417.557333a93.824 93.824 0 0 1 93.717333 93.717334v665.813333a93.824 93.824 0 0 1-93.717333 93.696" fill="#0063FF" p-id="1684"></path><path d="M439.786667 431.701333a49.344 49.344 0 1 1-98.688 0 49.344 49.344 0 0 1 98.688 0M565.866667 431.701333a49.344 49.344 0 1 1-98.688 0 49.344 49.344 0 0 1 98.688 0M689.194667 431.701333a49.344 49.344 0 1 1-98.666667 0 49.344 49.344 0 0 1 98.666667 0M468.032 839.402667c-9.706667 0-19.392-3.84-26.56-11.434667l-85.461333-90.368a36.544 36.544 0 1 1 53.12-50.218667l61.312 64.853334 175.850666-153.6a36.544 36.544 0 0 1 48.085334 55.04l-202.325334 176.704a36.437333 36.437333 0 0 1-24.021333 9.024" fill="#0063FF" p-id="1685"></path></svg>